<svg height="512" viewBox="0 0 512 512" width="512" xmlns="http://www.w3.org/2000/svg"><g id="flat"><path d="m200 80h160v96h-160z" fill="#92d1f7"/><path d="m142 240h196a14 14 0 0 1 14 14v82a0 0 0 0 1 0 0h-224a0 0 0 0 1 0 0v-82a14 14 0 0 1 14-14z" fill="#683b0d"/><path d="m40 408a8 8 0 0 1 -8-8v-168a8 8 0 0 1 2.343-5.657l7.783-7.782 47.8-55.768a8 8 0 0 1 12.148 10.414l-48 56c-.134.155-.272.305-.417.45l-5.657 5.656v164.687a8 8 0 0 1 -8 8z" fill="#ea9d2d"/><path d="m88 400h312v32h-312z" fill="#683b0d"/><path d="m88 400h312v16h-312z" fill="#422608"/><path d="m268 272h88a12 12 0 0 1 12 12v52a0 0 0 0 1 0 0h-112a0 0 0 0 1 0 0v-52a12 12 0 0 1 12-12z" fill="#eaeae8"/><path d="m400 368h88v64h-88z" fill="#b26643"/><path d="m456 408h-24a8 8 0 0 1 0-16h24a8 8 0 0 1 0 16z" fill="#683b0d"/><path d="m400 304h88v64h-88z" fill="#b26643"/><path d="m456 344h-24a8 8 0 0 1 0-16h24a8 8 0 0 1 0 16z" fill="#683b0d"/><path d="m84 336h304a12 12 0 0 1 12 12v52a0 0 0 0 1 0 0h-328a0 0 0 0 1 0 0v-52a12 12 0 0 1 12-12z" fill="#eaeae8"/><path d="m24 400h64v32h-64z" fill="#d18d28"/><path d="m24 400h64v16h-64z" fill="#ea9d2d"/><circle cx="40" cy="240" fill="#ea9d2d" r="16"/><path d="m456 304h-32l-6.111-6.111a40.933 40.933 0 0 1 -9.889-41.889h64a40.933 40.933 0 0 1 -9.889 41.889z" fill="#cbcbcb"/><path d="m480 200-6.4 4.8a64 64 0 0 0 -25.6 51.2h24l4.716-14.147a64.01 64.01 0 0 0 3.284-20.239z" fill="#79a73a"/><path d="m400 200 6.4 4.8a64 64 0 0 1 25.6 51.2h-24l-4.716-14.147a64.01 64.01 0 0 1 -3.284-20.239z" fill="#79a73a"/><path d="m440 192-4.209 5.612a69.3 69.3 0 0 0 -11.791 58.388h32a69.3 69.3 0 0 0 -11.791-58.388z" fill="#89b140"/><path d="m83.158 136.821a17.458 17.458 0 0 0 4.017 25l8.706 5.957 12.543 33.506 43.576-46.874-34.331-10.069-7.6-8.534a17.457 17.457 0 0 0 -26.911 1.014z" fill="#ea9d2d"/><path d="m296 176-48-48-48 32v16z" fill="#027e2a"/><path d="m240 176 72-56 48 48v8z" fill="#02a437"/><circle cx="272" cy="109" fill="#fd7422" r="13"/><path d="m256 320h112v16h-112z" fill="#cbcbcb"/><path d="m124 272h88a12 12 0 0 1 12 12v52a0 0 0 0 1 0 0h-112a0 0 0 0 1 0 0v-52a12 12 0 0 1 12-12z" fill="#eaeae8"/><path d="m112 320h112v16h-112z" fill="#cbcbcb"/><path d="m224 320h32v16h-32z" fill="#422608"/><g fill="#683b0d"><path d="m400 360h88v16h-88z"/><path d="m360 184h-160a8 8 0 0 1 -8-8v-96a8 8 0 0 1 8-8h160a8 8 0 0 1 8 8v96a8 8 0 0 1 -8 8zm-152-16h144v-80h-144z"/></g></g></svg>